<?xml version="1.0" standalone="no"?><!DOCTYPE svg PUBLIC "-//W3C//DTD SVG 1.1//EN" "http://www.w3.org/Graphics/SVG/1.1/DTD/svg11.dtd"><svg t="1710299683964" class="icon" viewBox="0 0 1024 1024" version="1.1" xmlns="http://www.w3.org/2000/svg" p-id="5033" xmlns:xlink="http://www.w3.org/1999/xlink" width="200" height="200"><path d="M564.2 249.3c35.4-104.3 93.1-104.1 124.2-36s-17.5 99.1-21.3 78.4c-3.8-20.7 45.2-84.3 95.7-65.1s60.6 139.1-24.5 121.3c-85.1-17.8 51.9-103.6 116.9-26.6s-30.1 151.4-60 127.2c-29.9-24.1 57.2-87.3 100.4-13.3s-41.8 150.9-86.6 99.1c-44.7-51.8 75-77.4 95 44 19.9 121.3-114.1 121.7-108.8 84.8 5.2-37 90.3 14.3 29.8 105s-121.2 7.8-108.9-44c12.3-51.8 35.8 27.8-12.8 86.2-48.6 58.4-127.1 68.9-134.5 0.7-4.7-43.1 22.1-29.8 24.4-24.9 23.5 48.6-16 91.3-90.5 67.7s-54.2-77.2-23.9-86 9.3 81.6-52.4 78.7c-61.7-2.9-118.3-31.5-98.6-87.2 9-25.3 70.6 34.4-26.1 53.2-91.7 17.8-91.4-100.9-40.9-137.6s49.2 110.2-82.2 16.3c-95.2-68.1 7.2-192.3 62-140.6s-122.6 20.7-82.2-99.1 119.7-60.7 112.5-7.4c-7.2 53.3-141.4-71-86.6-139.1 57.6-71.5 134.7-45.2 133 19.6S201.6 268 291 220.7s150.7 28.1 117.9 51.8-41.4-76.7 13.4-89.4 98.2 25.9 90.9 64.4c-7.2 38.5-24.3-53.2 8.8-64.4 33-11.2 67.4 34.6 61.6 71-5.7 36.4-30.9 29.2-19.4-4.8z" fill="#FFFFFF" p-id="5034"></path><path d="M542.1 865.5c-12.6 0-26.4-2.3-40.9-6.9-14.9-4.7-27-10.9-36.1-18.4-11.4 7.9-24.8 11.9-39 11.3-45.8-2.2-82.6-17.5-98.3-41-6.9 2.6-15.2 5-25.1 6.9-18.5 3.6-34.5 2.1-47.6-4.5-11.7-5.9-20.9-15.9-26.6-28.9-7.5-17.3-8.7-39.6-3.2-61.3v-0.2c-13.8-4.9-30.2-13.5-49.6-27.4-30.6-21.9-44.9-52.1-40.2-85.1 3.5-24.6 17.9-48.1 36.8-62.5-21.1-22.3-33-55.3-18.7-97.7 7.7-22.9 17.3-40.7 28.5-53.2-20.5-36.3-21.1-70.7-1.7-94.9 24.3-30.1 50.7-42.5 73.2-44.3 4.3-17 16.2-31.3 35.1-41.3 34.7-18.4 62.7-17.5 80.1-13.6 5.8 1.3 11.4 3.2 16.6 5.6 7.5-15.7 20.1-26.5 35.8-30.1 29.8-6.9 59.3 0.2 78.9 19.1l1.7 1.7c3.5-9.7 9.4-17.5 18.6-20.6 13.8-4.7 28.6-1.1 41.9 10.1 5.9 5 11 11.1 15.2 17.7 15.9-28.4 35-44.1 55.5-45.1 23-1.2 44.9 17.1 60 50.2 3.6 7.8 6.1 15 7.8 21.7 14.5-10.2 37.8-20.8 63.8-10.9 15.2 5.8 28.2 20.4 35.6 40 3 8 5 16.5 5.8 25 19.4 4 38.2 13.7 52.9 31.2 17.3 20.4 25.2 43 23 65.3-0.8 7.7-2.7 15.4-5.9 22.8 8.3 5.7 16.4 14.1 23.7 26.5 21.1 36.1 13.2 73.7-6.6 97.8 7 12.6 12.5 28.1 15.6 47 9.8 59.4-17 87-33.9 98.2-8.2 5.5-17.1 9.2-25.8 11.4 1.7 6.4 2.6 13.8 2.3 22.3-0.8 19.6-8.3 40.3-22.5 61.5-32.9 49.2-63.2 45.5-78.4 38.9-10.3-4.5-19.3-12.8-26.3-23.1-4.4 9.2-10.1 18.3-17.2 26.9-31.2 37.5-75.3 56.9-107.2 47.3-5.6-1.7-10.6-4.2-15-7.5-10.9 8-25.6 12.1-42.6 12.1z m-69-31.8c7.9 6.1 18.3 11.3 31.1 15.3 30.1 9.5 56.5 8.4 73.2-2.8-7.4-8.7-12.1-20.4-13.6-34.7-2.8-25.7 5.3-33.6 12.6-35.7 8.7-2.5 19 3.1 21.3 8 11 22.7 9.4 45.7-4.4 61.6-0.3 0.3-0.6 0.7-0.9 1 3.1 2 6.5 3.6 10.2 4.8 27.8 8.4 68.4-10.2 96.7-44.1 8.7-10.4 14.7-21.2 18.8-31.1-8-16.5-11.1-35.9-7-53.1 3.1-13.2 7.3-19.7 13-20.5 1.7-0.2 6-0.2 9.3 5.6 5.8 10.4 6.7 38.1-4.2 67.3 6.3 11.4 15.2 20.6 25.5 25.1 21.2 9.3 44.7-3.3 66.1-35.3 13.1-19.6 20.1-38.5 20.8-56.3 0.3-7.7-0.6-14.4-2.1-20.1-15.4 2-29.6-0.6-38.6-6.3-7.9-5-11.7-12.2-10.5-20.3 1.2-8.4 6-14.2 13.3-15.9 11.4-2.7 26.3 5.3 36.2 19.5 2.1 3 4.4 6.9 6.3 11.5 8.1-1.9 16.2-5.2 23.6-10.1 18.1-12 37.9-37.1 29.5-88.2-2.7-16.3-7.2-29.9-13-41-2.4 2.2-4.9 4.3-7.5 6.1-25.4 18.1-54.1 15.5-73.3-6.7-11.1-12.9-14.1-26.2-8.1-36.6 6.6-11.5 23-17.1 41-13.9 16.7 3 35.3 13.6 49.6 34.3 15.9-21.2 21.5-53 3.6-83.7-6-10.3-12.8-17.5-19.6-22.4-3.8 6.8-8.7 13.2-14.4 19-10 10.2-22 17.9-33.6 21.5-12.8 4-24 2.8-31.7-3.4-7-5.7-9.6-13.6-7.1-22.3 4.6-16.3 25.8-31.3 48.3-34.2 8.5-1.1 21.1-1 34.2 5.2 8.7-21.9 7.2-49-16.1-76.6-12.5-14.8-28.3-23.4-44.8-27.3-0.1 7.3-1 14.4-2.9 20.8-3.9 13.3-11.4 23.6-21.9 29.8-11.8 7-26.8 8.7-44.5 5-24.2-5.1-30.2-15.2-31-22.9-1.2-12.8 12.1-27 33.9-36.1 16.5-7 36.1-10.4 55.6-8.4-3.1-23.3-15.5-46.7-34.7-54.1-24-9.1-45.8 2.9-58 12.4 4 28-6.9 44.1-11.2 49.4-6.4 7.6-14.4 11.3-20.9 9.6-4.5-1.2-7.7-4.8-8.6-10-2.4-13 10.9-36.3 29.9-52.9-1.5-7.5-4.2-15.6-8.1-24.4-13.3-29.1-31.7-45.3-50.4-44.4-18 0.9-35.6 17.2-50.4 45.9 5.3 12.3 7.4 25.7 5.5 37.9-2.4 15.2-8.3 25.4-16.2 27.9-4.1 1.3-8.2 0.3-11.3-2.8-5.8-5.9-6.4-18-1.6-32.2 3.8-11.3 8-21.7 12.5-30.9-4-7.9-9.5-15.2-16.1-20.7-6.1-5.1-18.3-13-32.2-8.3-6.1 2.1-10.6 8.1-13.4 17.9-0.3 0.9-0.5 1.8-0.7 2.7 8.1 12.2 11.3 26.2 8.7 40-0.8 4.4-2.6 13.6-9.3 13.5-5.2-0.1-8.4-5.6-10.3-17.5-1.5-9.8-1.8-22.2 0.2-33.7-1.7-2.1-3.5-4.2-5.6-6.1-17.2-16.5-43.3-22.7-69.8-16.5-15.5 3.6-24.2 14.7-29.1 25.1 9.2 5.6 16.9 12.9 22 21.2 10.2 16.4 8.4 33-4.5 42.3-9.7 7-17.1 4.4-20.7 2.2-12.2-7.5-15.4-30.4-12.3-49.2 0.7-4.1 1.6-8.1 2.8-11.9-21-9.7-51.7-11.9-88.4 7.5-17.3 9.2-25.8 20.8-29.4 32.4 6.7 0.4 12.8 1.7 18.4 3.8 25.4 9.3 40.7 33.7 39.9 63.5-0.5 18.5-9.5 22.5-14.8 23.3-0.8 0.1-1.6 0.2-2.4 0.2-16.9 0-40.2-24.2-49.3-52-3.2-9.9-4.5-19.5-3.9-28.4-19.5 2.3-42.3 13.8-63.8 40.4-21.8 27.1-9 62 1.3 81.3 0.2-0.2 0.4-0.3 0.5-0.5 16.5-13.7 32-13.7 42.2-11.4 27.2 6.4 47.5 37.7 43.6 67.1-1.7 12.5-9.3 15.9-13.7 16.8-1.4 0.3-2.8 0.4-4.3 0.4-20.8 0-51.4-27.3-70.3-56.3-9.4 11.3-17.6 27.1-24.4 47.4-14.5 43.1 0.6 71.7 17.7 88.8 3.8-2.2 7.7-4 11.7-5.4 19.1-6.7 37.4-2.9 51.6 10.4 14.3 13.5 13.5 21.9 10.2 26.6-7.6 10.8-32.4 6-52-3.9-7.9-4-15.6-9.1-22.6-15.1-17.5 12.7-31 34.3-34.2 57-4.2 29.1 8.6 56 36.1 75.6 17 12.1 32.8 20.8 46.7 25.8 6.3-17.7 16.8-32.7 29.6-42 18.4-13.4 29.3-4 32.2-0.7 9.8 10.9 8.3 31.7-3.2 44.6-6.5 7.3-22 18.5-52.2 10.8-4.6 18.5-4.1 38.4 2.9 54.5 10.3 23.7 32.7 33.4 63.1 27.5 8.4-1.6 15.8-3.6 22.2-6-5.6-13.1-5.6-27.8 0.1-44 2.4-6.9 8.4-10.4 15.5-9.3 10.2 1.7 21.6 13.2 21.8 27.2 0.1 8-3.5 20.6-23.2 30.8 14.6 20.1 47.8 33.1 89.5 35.1 12.8 0.6 23.1-3.1 31.2-8.4-7.5-8.7-11.4-18.7-11.3-29.1 0.2-18.5 13.2-35.8 30.9-41 8.7-2.5 13.6 1.4 15.7 3.9 6.9 8.2 5.5 26.2-3.2 43.8-4.8 9.3-10.5 17-17.1 23.2z m107.8-48.4c-0.8 0-1.6 0.1-2.3 0.4-4.6 1.8-6.4 11.1-4.9 24.8 1.3 12.3 5.2 22.2 11.3 29.3 0.3-0.3 0.5-0.6 0.8-0.9 11.2-12.9 12.3-31.3 3-50.5-1-1-4.6-3.1-7.9-3.1z m-98.2-13.1c-0.7 0-1.5 0.1-2.5 0.4-13.4 3.9-23.6 17.4-23.7 31.5-0.1 8.2 3.1 15.9 9.2 22.8 8.3-7.7 13.2-16.4 15.2-20.5 7.4-14.9 8.1-28.7 4.5-33-0.3-0.4-1-1.2-2.7-1.2z m-146.9-14c-1.7 0-2.7 0.9-3.4 2.8-4.8 13.6-4.9 25.9-0.3 36.7 11.9-6 18.3-13.6 18.2-22-0.1-9.3-8.1-16.5-13.5-17.4-0.3-0.1-0.6-0.1-1-0.1z m389.1-44.6c-1 1.6-2.5 5-4.1 11.7-2.7 11.5-1.6 24.5 2.3 36.4 1.8-6.3 2.8-11.8 3.4-16.1 2.4-16.7 0.3-27.9-1.6-32z m-487.2 2.2c18.4 4.7 32.9 2.2 41.8-7.8 8.8-9.9 9-24.9 3.2-31.2-5.5-6.1-14.2-1.3-18.9 2.1-11.8 8.5-20.7 21.9-26.1 36.9zM808 656c-0.8 0-1.6 0.1-2.3 0.3-1.2 0.3-4.8 1.1-5.7 7.6-0.6 4.1 1.4 7.6 6 10.5 6.8 4.3 17.7 6.1 29.7 5-1.4-2.9-2.9-5.4-4.3-7.5-7.5-10.8-17-15.9-23.4-15.9zM188.6 549c7.1 5.7 13.8 9.6 18.1 11.7 21.5 10.9 37.3 9.9 39.3 7 0.5-0.7 0.3-4.9-8.9-13.5-14.5-13.7-30.5-12.1-41.4-8.3-2.4 0.9-4.8 1.9-7.1 3.1z m639.5-52.7c-10.2 0-18.8 3.6-22.3 9.7-3.8 6.6-1.3 15.5 7 25.1 18.9 21.9 43.3 17 59.9 5.1 2.9-2 5.6-4.4 8.2-6.9-12.8-19.6-29.6-29.6-44.6-32.3-2.8-0.5-5.6-0.7-8.2-0.7z m-633.5-98c21.1 33.6 52.3 56.3 65.4 53.5 1.3-0.3 4.9-1 5.8-8.4 3.3-24.6-13.5-50.8-35.9-56-11.4-2.7-23 0.6-33.5 9.3-0.6 0.5-1.2 1.1-1.8 1.6z m646.6 7.1c-2.5 0-4.8 0.2-6.8 0.4-20.7 2.6-36.9 16.1-40 27-1.4 4.8-0.1 8.7 3.7 11.8 10.8 8.7 34.1 0.9 51.9-17.3 4.9-5 9.3-10.8 12.9-17.1-7.8-3.7-15.4-4.8-21.7-4.8z m-56.4-110.6c-14.4 0-28.5 3-40.7 8.2-19.1 8.1-28.5 19.2-27.8 26 0.6 6 9 11.1 23 14.1 28.3 5.9 47.7-4 54.7-27.8 1.8-6.1 2.6-12.8 2.5-19.8-3.9-0.5-7.8-0.7-11.7-0.7z m-522.7-27.4c-0.9 9.8 1 18.9 3.2 25.7 8.8 26.9 30.9 46.5 40.7 45.1 5.1-0.7 6.1-8.9 6.2-13.7 0.7-25.4-12.1-46-33.3-53.8-5-1.9-10.7-3.1-16.8-3.3z m431.5-15.5C678.4 267 670.7 284 672 290.8c0.4 1.9 1.1 2.1 1.4 2.2 1.7 0.4 6.1-0.9 10.7-6.4 6-7.2 10.4-19 9.5-34.7z m-124.7-1c-4.2 12.4-2.7 19.9-0.7 22 0.4 0.4 0.7 0.4 1.1 0.3 2.3-0.7 7.2-5.8 9.4-19.9 1.2-7.4 0.5-15.5-1.7-23.4-2.8 6.5-5.5 13.5-8.1 21z m-178.1-28.3c-1.1 3.5-1.7 6.6-2 8.5-3.2 19.2 1.5 35.2 7.7 39 0.9 0.6 3.8 2.4 9.6-1.8 10.1-7.3 7.6-19.7 1.9-28.9-3.8-5.8-9.6-11.8-17.2-16.8z m116.6 4.6c0 6.5 0.5 12.5 1.3 17 0.8-5.7 0.3-11.5-1.3-17z" fill="" p-id="5035"></path><path d="M516 583.2c-6.9-9.8-13.7-13.1-13.8-13.1l2.9-6.4c0.3 0.2 8.6 4 16.6 15.5l-5.7 4zM531 583.2l-5.7-4c8.1-11.5 16.3-15.3 16.6-15.5l2.9 6.4c-0.1 0-7 3.3-13.8 13.1zM490.6 611.6c-3.2 0-5.3-0.2-5.6-0.2l0.6-7c7.9 0.7 29.1 0.1 34.5-10.8v-11.8h7v13.3l-0.3 0.7c-6.1 14-26.3 15.8-36.2 15.8z" fill="" p-id="5036"></path><path d="M556.4 611.9c-10 0-30.2-1.8-36.2-15.8l6.4-2.7c4.9 11.5 26.7 12.1 34.7 11.4l0.6 7c-0.2-0.1-2.3 0.1-5.5 0.1z" fill="" p-id="5037"></path><path d="M203.4 417.8c-25.5 12.3-59.8-10.3-37.6-38.3 23.3-29.4 99-31.6 133.2 49S204.3 605.2 102.1 492c-126-139.6 67.9-309.5 223.6-168.8 21.1 19 16.6 53.2-8.5 66.4l-30.4 16" fill="#916446" p-id="5038"></path><path d="M204.7 548.8c-5.9 0-11.9-0.5-17.9-1.4-31.6-4.9-62.1-22.9-88.4-52-62.6-69.4-47.2-143.9-4.1-187 52.5-52.5 150-65.5 234.8 11.1 11.2 10.1 16.6 24.6 14.7 39.6-1.9 14.9-10.9 28-24.2 34.9L294 407.5c3.6 6 6.9 12.4 9.8 19.2 15.7 37.1-0.3 80.1-38.9 104.7-18 11.4-38.9 17.4-60.2 17.4z m-4.3-273.2c-39.2 0-74.4 15.2-99 39.8-39.7 39.7-53.8 108.7 4.4 173.2 55.9 61.9 117.7 57.2 153.5 34.3 34.4-21.9 48.8-59.9 35.1-92.4-15.4-36.4-42.2-59.8-73.5-64-21-2.9-41.1 3.5-51.2 16.1-7.1 8.9-8 17.6-2.5 24.5 6.2 7.8 21 12.4 34 6.1l4.3 9c-15.8 7.6-36.1 3.7-46.1-8.9-8.4-10.6-7.5-24.4 2.5-37 12.2-15.4 35.9-23.1 60.4-19.8 26 3.5 49 18.6 66.1 42.4l26.5-13.9c10.6-5.5 17.5-15.5 19-27.3s-2.7-23-11.5-30.9c-40-36.1-82.9-51.2-122-51.2z" fill="" p-id="5039"></path><path d="M276.4 624.3a57.5 21.3 0 1 0 115 0 57.5 21.3 0 1 0-115 0Z" fill="#FFD4DC" p-id="5040"></path><path d="M664.8 622.9a57.5 21.3 0 1 0 115 0 57.5 21.3 0 1 0-115 0Z" fill="#FFD4DC" p-id="5041"></path><path d="M363.8 559m-55 0a55 55 0 1 0 110 0 55 55 0 1 0-110 0Z" fill="" p-id="5042"></path><path d="M363.8 615.5c-31.2 0-56.5-25.3-56.5-56.5s25.3-56.5 56.5-56.5 56.5 25.3 56.5 56.5-25.4 56.5-56.5 56.5z m0-110c-29.5 0-53.5 24-53.5 53.5s24 53.5 53.5 53.5 53.5-24 53.5-53.5-24-53.5-53.5-53.5z" fill="" p-id="5043"></path><path d="M340 543.8m-15.2 0a15.2 15.2 0 1 0 30.4 0 15.2 15.2 0 1 0-30.4 0Z" fill="#FFFFFF" p-id="5044"></path><path d="M402.9 576.6c2.4 4.2-1.2 14.8-13.9 22.3s-26.4 6.4-28.9 2.3c-2.4-4.2 9.7-1.6 22.5-9s17.9-19.8 20.3-15.6z" fill="#565656" p-id="5045"></path><path d="M665.6 559m-55 0a55 55 0 1 0 110 0 55 55 0 1 0-110 0Z" fill="" p-id="5046"></path><path d="M665.6 615.5c-31.2 0-56.5-25.3-56.5-56.5s25.3-56.5 56.5-56.5 56.5 25.3 56.5 56.5-25.4 56.5-56.5 56.5z m0-110c-29.5 0-53.5 24-53.5 53.5s24 53.5 53.5 53.5 53.5-24 53.5-53.5-24-53.5-53.5-53.5z" fill="" p-id="5047"></path><path d="M641.8 543.8m-15.2 0a15.2 15.2 0 1 0 30.4 0 15.2 15.2 0 1 0-30.4 0Z" fill="#FFFFFF" p-id="5048"></path><path d="M704.7 576.6c2.4 4.2-1.2 14.8-13.9 22.3s-26.4 6.4-28.9 2.3 9.7-1.6 22.5-9 17.9-19.8 20.3-15.6z" fill="#565656" p-id="5049" data-spm-anchor-id="a313x.search_index.0.i9.2e373a816Pyy2V" class="selected"></path><path d="M819.2 417.8c25.5 12.3 59.8-10.3 37.6-38.3-23.3-29.4-99-31.6-133.2 49-34.2 80.7 94.8 176.5 196.9 63.4 126-139.6-67.9-309.5-223.6-168.8-21.1 19-16.6 53.2 8.5 66.4l30.4 16" fill="#916446" p-id="5050" data-spm-anchor-id="a313x.search_index.0.i10.2e373a816Pyy2V" class="selected"></path><path d="M818 548.8c-21.3 0-42.2-6-60.1-17.4-38.6-24.6-54.6-67.7-38.9-104.7 2.9-6.8 6.2-13.2 9.8-19.2L703.1 394c-13.3-7-22.3-20-24.2-34.9-1.9-15 3.4-29.5 14.7-39.6 84.8-76.6 182.3-63.6 234.8-11.1 43.1 43.1 58.5 117.6-4.1 187-26.3 29.1-56.9 47.1-88.4 52-6 0.9-12 1.4-17.9 1.4z m-6.3-182.9c-3.3 0-6.6 0.2-10 0.7-31.3 4.3-58.1 27.6-73.5 64-13.8 32.5 0.7 70.5 35.1 92.4 35.9 22.9 97.6 27.6 153.5-34.3 58.2-64.5 44.2-133.5 4.4-173.2-49.1-49.1-140.8-61-221 11.5-8.8 7.9-12.9 19.2-11.5 30.9 1.5 11.8 8.4 21.8 19 27.3l26.5 13.9c17-23.8 40.1-38.9 66.1-42.4 24.5-3.3 48.1 4.4 60.4 19.8 10 12.6 10.9 26.4 2.5 37-10.1 12.6-30.3 16.5-46.1 8.9l4.3-9c13 6.2 27.7 1.7 34-6.1 5.5-6.9 4.6-15.6-2.5-24.5-8.5-10.7-24-16.9-41.2-16.9z" fill="" p-id="5051"></path></svg>
